# xmcd
#
# Track frame offsets:
#	150
#	12377
#	30679
#	52056
#	71858
#	99085
#	134787
#	149864
#	174016
#	193593
#	228845
#
# Disc length: 3323 seconds
#
# Revision: 0
# Processed by: cddbd v1.5.1PL2 Copyright (c) Steve Scherf et al.
# Submitted via: dBpowerAMP V4.0
#
DISCID=9e0cf90b
DTITLE=Rob Perna - Guitar School - Live at Vincents
DYEAR=1900
DGENRE=Blues
TTITLE0=Hideaway
TTITLE1=I Gotta Find My Baby
TTITLE2=Killing Floor
TTITLE3=Lookin' Good
TTITLE4=Mystery Train
TTITLE5=Sex Machine
TTITLE6=T-Bone Shuffle
TTITLE7=All Your Love I Miss Lovin'
TTITLE8=Born Under a Bad Sign
TTITLE9=Caledonia
TTITLE10=Early In The Morning
EXTD=
EXTT0=
EXTT1=
EXTT2=
EXTT3=
EXTT4=
EXTT5=
EXTT6=
EXTT7=
EXTT8=
EXTT9=
EXTT10=
PLAYORDER=
